<svg id="logosandtypes_com" data-name="logosandtypes com" xmlns="http://www.w3.org/2000/svg" viewBox="0 0 150 150"><defs><style>.cls-1{fill:none;}.cls-2{fill:#008561;}</style></defs><path class="cls-1" d="M0,0H150V150H0Z" transform="translate(0 0)"/><path class="cls-2" d="M98.6,39.38a22.73,22.73,0,0,1-7,16.21c-4.84,4.83-11.86,6-11.86,10.15,0,5.57,9,3.87,17.54,12.46a30.78,30.78,0,0,1-21.89,52.72A30.78,30.78,0,0,1,53.5,78.21C62.09,69.62,71,71.32,71,65.75c0-4.11-7-5.32-11.85-10.15A22.75,22.75,0,0,1,75,16.42c2.42,0,4.6.36,6.41.36,3.26,0,5-1.45,5-3.75,0-1.33-.61-3-.61-4.83a7.68,7.68,0,0,1,15.36.24c0,4.47-3.51,6.52-6.17,7.5-2.17.72-3.87,1.69-3.87,3.87,0,4.09,7.5,8.09,7.5,19.57ZM96.2,100.1c0-12-8.83-21.65-20.8-21.65S54.6,88.13,54.6,100.1s8.83,21.64,20.8,21.64S96.2,111.93,96.2,100.1Zm-7.14-61A13.67,13.67,0,1,0,75.39,53.05,13.86,13.86,0,0,0,89.06,39.14Z" transform="translate(0 0)"/></svg>